<?xml version="1.0" encoding="utf-8"?>
<!-- Generator: Adobe Illustrator 24.2.1, SVG Export Plug-In . SVG Version: 6.00 Build 0)  -->
<svg version="1.1" id="Layer_1" xmlns="http://www.w3.org/2000/svg" xmlns:xlink="http://www.w3.org/1999/xlink" x="0px" y="0px"
	 viewBox="0 0 22.7 19.5" style="enable-background:new 0 0 22.7 19.5;" xml:space="preserve">
<style type="text/css">
	.st0{fill:#FFFFFF;}
</style>
<g id="Layer_2_1_">
	<g id="VER_1">
		<path class="st0" d="M4.2,10.9v5.8H1.7v-5.8H0V9.2h5.9v1.7H4.2z"/>
		<path class="st0" d="M4.4,19.5v-8.4h5.9v8.4H7.8v-3.4H7v3.4H4.4z M7.8,14.5v-1.7H7v1.7L7.8,14.5z"/>
		<path class="st0" d="M10.6,16.2v-5h5.9v1.7h-3.4v1.7h3.4v5h-5.9v-1.7H14v-1.7H10.6z"/>
		<path class="st0" d="M16.8,19.5V17h2.5v2.5L16.8,19.5z"/>
		<path class="st0" d="M16.8,16.7V9.2h2.5v1.6h0.8V9.2h2.5v3.6H21v0.7h1.7v3.2h-2.5v-1.5h-0.8v1.5H16.8z"/>
		<path class="st0" d="M6.4,1.6L8,0l1.6,1.5L8,3.1l1.6,1.5L8.1,6.2L6.5,4.7L4.9,6.3L3.3,4.7l1.6-1.6L3.3,1.6L4.9,0L6.4,1.6z"/>
		<path class="st0" d="M16.3,1.6L17.8,0l1.6,1.5l-1.5,1.6l1.6,1.5l-1.5,1.6l-1.6-1.5l-1.5,1.6l-1.6-1.5l1.6-1.6l-1.6-1.5L14.7,0
			L16.3,1.6z"/>
	</g>
</g>
</svg>
